<svg width="1200" height="1398" viewBox="0 0 1200 1398" fill="none" xmlns="http://www.w3.org/2000/svg">
<path d="M933.479 443.091C783.43 348.581 1033.38 129.321 873.367 -3.90773L-0.158175 -3.83644L-0.208136 498.751C28.9171 676.956 89.1298 854.749 225.756 960.153L579.771 960.125L931.286 959.596L1199.8 959.574L1199.82 692.288L1199.84 575.43C1133.85 368.074 1112.39 555.779 933.479 443.091Z" fill="url(#paint0_linear_701:2)" fill-opacity="0.3"/>
<path d="M1078.82 655.768C998.926 439.777 969.272 563.164 736.372 450.87C594.388 382.411 687.429 262.953 625.439 222.914C449.945 109.562 513.636 34.5222 539.937 -1.06471L-1.08294 -0.926252L-1.1525 222.558C13.456 299.022 62.8801 346.049 62.8515 438.043C62.8338 495.039 156.57 505.845 173.819 555.507C202.358 637.67 110.061 763.022 151.586 833.976C181.518 885.122 253.744 901.587 313.698 960.188L1202.23 959.96L1202.31 698.773L1201.38 698.647C1142.75 690.777 1089.11 683.577 1078.82 655.768Z" fill="url(#paint1_linear_701:2)" fill-opacity="0.3"/>
<defs>
<linearGradient id="paint0_linear_701:2" x1="2642.64" y1="-402.872" x2="1507.7" y2="-1243.59" gradientUnits="userSpaceOnUse">
<stop stop-color="#B447F2"/>
<stop offset="1" stop-color="#2C43C7"/>
</linearGradient>
<linearGradient id="paint1_linear_701:2" x1="2498.41" y1="-245.902" x2="1363.81" y2="-1086.57" gradientUnits="userSpaceOnUse">
<stop stop-color="#2B328F"/>
<stop offset="1" stop-color="#2C43C7"/>
</linearGradient>
</defs>
</svg>
